<svg width="2495" height="157" viewBox="0 0 2495 157" fill="none" xmlns="http://www.w3.org/2000/svg">
<path d="M199.005 145.725C164.053 153.058 130.418 156.719 98.0972 156.719C65.7763 156.719 33.0773 153.058 0 145.725L5.92616 118.106C40.8709 126.375 73.8468 130.512 104.858 130.512C126.282 130.512 150.052 128.258 176.166 123.743L181.527 98.0894H10.1524L25.9347 23.6773C61.0783 16.3554 94.8067 12.6944 127.128 12.6944C159.448 12.6944 192.05 16.3554 224.932 23.6773L219.014 51.3041C184.249 43.2258 151.366 39.1866 120.359 39.1866C98.9394 39.1866 75.1724 41.3466 49.0506 45.6625L43.6897 70.4705H215.065L199.005 145.725ZM296.377 69.9012H354.45C387.894 69.9012 416.55 69.0552 440.418 67.3709L444.925 45.9432C419.934 41.4362 395.972 39.1827 373.047 39.1827C351.627 39.1827 327.86 41.3427 301.738 45.6586L296.377 69.9012ZM228.453 69.9012H268.759L278.626 23.6734C313.766 16.3515 347.498 12.6905 379.819 12.6905C412.14 12.6905 444.742 16.3515 477.62 23.6734L471.702 51.3002H471.417L462.965 91.0404C423.318 95.3642 385.262 97.528 348.808 97.528H290.744L278.065 156.431H250.438L263.125 97.528H222.815L228.453 69.9012ZM541.521 12.6905H569.14L538.414 156.435H510.795L541.521 12.6905ZM786.692 123.459L803.043 45.9471C778.052 41.4401 753.997 39.1866 730.885 39.1866C726.187 39.1866 709.933 38.8085 682.123 38.0599L661.272 37.4907L641.537 129.658H613.918L715.383 129.939C736.807 129.939 760.578 127.779 786.692 123.459ZM809.531 145.444C774.578 152.77 740.944 156.439 708.623 156.435H608.272L638.998 12.6905H737.653C769.974 12.6905 802.572 16.3515 835.454 23.6734L809.531 145.444ZM859.81 69.9012H912.521L920.124 34.1065H920.408L924.073 17.4782C953.01 14.2851 988.902 12.6866 1031.75 12.6866C1072.71 12.6866 1106.54 14.3748 1133.22 17.7512L1127.3 45.6547C1090.67 40.7451 1053.76 38.2963 1016.81 38.325C991.245 38.325 967.666 39.5453 946.055 41.9899L940.136 69.8934H1076.84L1071.2 97.5202H934.502L928.3 125.704C949.536 128.141 972.835 129.365 998.197 129.365C1035.59 129.365 1072.8 126.921 1109.82 122.032L1103.9 149.947C1075.71 154.263 1041.42 156.427 1001.02 156.423C958.741 156.427 923.695 154.263 895.881 149.947L900.111 130.5H899.827L906.872 97.5202H854.168L859.81 69.9012ZM1358.75 90.2022C1366.64 93.7696 1372.56 97.2434 1376.5 100.631L1364.67 156.435H1337.04L1346.35 113.314C1325.49 103.54 1300.5 98.4637 1271.37 98.0855L1206.26 97.2473L1193.58 156.435H1165.95L1194.14 23.6734C1229.28 16.3515 1263.01 12.6905 1295.33 12.6905C1327.65 12.6905 1360.25 16.3515 1393.13 23.6734L1387.21 51.3002H1386.93L1379.33 87.9448L1358.75 90.2022ZM1212.17 69.6244L1290.54 69.9012C1306.7 69.9012 1328.68 68.1156 1356.49 64.5482L1360.44 45.9432C1335.45 41.4362 1311.49 39.1827 1288.56 39.1827C1267.14 39.1827 1243.37 41.3427 1217.25 45.6586L1212.17 69.6244ZM1474.98 69.0552H1622.96L1613.09 90.479H1465.11L1474.98 69.0552ZM1812.37 0H1840L1837.18 12.9634C1864.8 13.9031 1892.61 17.4743 1920.6 23.6734L1892.42 157H1864.79L1888.19 45.9432C1868.84 42.3758 1849.95 40.212 1831.54 39.4557L1809.56 144.033H1781.93L1803.92 39.4557C1785.88 40.0249 1766.15 42.0912 1744.72 45.6586L1721.05 157H1693.42L1721.61 23.6734C1751.87 17.2872 1781.18 13.7159 1809.56 12.9634L1812.37 0ZM2016.06 45.6586L2010.71 69.9012H2154.45L2159.53 45.9432C2134.54 41.4362 2110.48 39.1827 2087.37 39.1827C2066.14 39.1827 2042.36 41.3427 2016.06 45.6586ZM2163.75 156.435H2136.13L2148.53 98.0855H2004.79L1992.38 156.435H1964.76L1992.94 23.6734C2028.08 16.3515 2061.82 12.6905 2094.13 12.6905C2126.45 12.6905 2159.05 16.3515 2191.95 23.6734L2163.75 156.435ZM2295.25 23.6734C2304.88 21.6368 2314.56 19.8518 2324.28 18.3204C2324.66 18.3204 2324.85 18.5075 2324.85 18.8818C2324.85 19.6343 2324.61 20.8078 2324.14 22.4102C2323.67 24.0126 2323.44 25.1861 2323.44 25.9386C2323.44 26.3129 2323.53 26.5 2323.72 26.4961C2325.03 23.6812 2326.63 20.8624 2328.51 18.0436C2353.88 14.4762 2376.51 12.6905 2396.44 12.6905C2428.76 12.6905 2461.36 16.3515 2494.24 23.6734L2466.06 157H2438.43L2461.83 45.9432C2436.84 41.4362 2412.79 39.1827 2389.67 39.1827C2368.26 39.1827 2344.48 41.3427 2318.36 45.6586L2294.69 157H2267.06L2295.25 23.6734Z" fill="white"/>
</svg>
